<svg width="14" height="15" viewBox="0 0 14 15" fill="none" xmlns="http://www.w3.org/2000/svg">
<g clip-path="url(#clip0_3_10623)">
<path fill-rule="evenodd" clip-rule="evenodd" d="M13 7.5C13 10.8137 10.3137 13.5 7 13.5C3.68629 13.5 1 10.8137 1 7.5C1 4.18629 3.68629 1.5 7 1.5C10.3137 1.5 13 4.18629 13 7.5ZM14 7.5C14 11.366 10.866 14.5 7 14.5C3.13401 14.5 0 11.366 0 7.5C0 3.63401 3.13401 0.5 7 0.5C10.866 0.5 14 3.63401 14 7.5ZM6.5 3.5V7.5V7.74031L6.68765 7.89043L9.18765 9.89043L9.81235 9.10957L7.5 7.25969V3.5H6.5Z" fill="white" fill-opacity="0.6"/>
</g>
<defs>
<clipPath id="clip0_3_10623">
<rect width="14" height="14" fill="white" transform="translate(0 0.5)"/>
</clipPath>
</defs>
</svg>
