<svg width="25" height="24" viewBox="0 0 25 24" fill="none" xmlns="http://www.w3.org/2000/svg">
<g clip-path="url(#clip0_10_4013)">
<path d="M12.8796 0C6.5648 0 1.39167 4.86075 0.900391 11.0374L7.34323 13.6967C7.889 13.3236 8.54894 13.1063 9.25818 13.1063C9.32219 13.1063 9.38533 13.108 9.4476 13.1114L12.3131 8.96513V8.90695C12.3131 6.41198 14.3466 4.3816 16.8462 4.3816C19.3458 4.3816 21.3793 6.41198 21.3793 8.90695C21.3793 11.4019 19.3458 13.4332 16.8462 13.4332C16.8116 13.4332 16.7779 13.4323 16.7433 13.4314L12.6565 16.3414C12.6591 16.3953 12.6608 16.4492 12.6608 16.5022C12.6608 18.376 11.1342 19.8999 9.25818 19.8999C7.61136 19.8999 6.23353 18.726 5.92216 17.1722L1.31383 15.2702C2.74096 20.3072 7.37696 24 12.8796 24C19.5188 24 24.9004 18.6267 24.9004 12C24.9004 5.37241 19.5188 0 12.8796 0ZM8.43339 18.208L6.95696 17.5988C7.21816 18.143 7.67139 18.5982 8.27251 18.848C9.57163 19.3887 11.0697 18.7736 11.6111 17.4756C11.8732 16.8476 11.8749 16.1545 11.6155 15.5248C11.356 14.8951 10.8656 14.4039 10.2368 14.1421C9.61142 13.8829 8.94196 13.8923 8.35381 14.1139L9.87955 14.7436C10.8379 15.1423 11.2911 16.2409 10.8915 17.1975C10.4928 18.1541 9.39173 18.6067 8.43339 18.208ZM19.8669 8.90704C19.8669 7.24458 18.5115 5.89099 16.8465 5.89099C15.1807 5.89099 13.8254 7.24458 13.8254 8.90704C13.8254 10.5695 15.1807 11.9222 16.8465 11.9222C18.5115 11.9222 19.8669 10.5695 19.8669 8.90704ZM14.5822 8.9019C14.5822 7.65099 15.5985 6.63709 16.8509 6.63709C18.1041 6.63709 19.1204 7.65099 19.1204 8.9019C19.1204 10.1528 18.1041 11.1667 16.8509 11.1667C15.5985 11.1667 14.5822 10.1528 14.5822 8.9019Z" fill="white"/>
</g>
<defs>
<clipPath id="clip0_10_4013">
<rect width="24" height="24" fill="white" transform="translate(0.900391)"/>
</clipPath>
</defs>
</svg>
