<svg width="13" height="14" viewBox="0 0 13 14" fill="none" xmlns="http://www.w3.org/2000/svg">
<path d="M5.49609 9.37891C5.67839 9.54297 5.88802 9.625 6.125 9.625C6.36198 9.625 6.57161 9.54297 6.75391 9.37891L11.1289 5.00391C11.293 4.82161 11.375 4.61198 11.375 4.375C11.375 4.13802 11.293 3.92839 11.1289 3.74609C10.9466 3.58203 10.737 3.5 10.5 3.5C10.263 3.5 10.0534 3.58203 9.87109 3.74609L6.125 7.51953L2.37891 3.74609C2.19661 3.58203 1.98698 3.5 1.75 3.5C1.51302 3.5 1.30339 3.58203 1.12109 3.74609C0.957031 3.92839 0.875 4.13802 0.875 4.375C0.875 4.61198 0.957031 4.82161 1.12109 5.00391L5.49609 9.37891Z" fill="white" fill-opacity="0.8"/>
</svg>
