<svg width="101" height="24" viewBox="0 0 101 24" fill="none" xmlns="http://www.w3.org/2000/svg">
<path fill-rule="evenodd" clip-rule="evenodd" d="M0.144531 0.376953H23.7128V24.0002H0.144531V0.376953ZM3.31575 14.9074L3.29152 10.0896C3.29152 10.0896 5.91585 11.0055 7.70887 11.0357L7.73792 14.1235C7.73792 14.1235 5.6276 14.1227 3.37272 14.9438L3.31575 14.9074ZM10.0794 10.9791L8.634 11.0074L8.69182 14.1235H10.1083L10.0794 10.9791ZM12.4211 11.6164L11.4878 12.592L12.4813 13.5788L13.4008 12.5577L12.4211 11.6164ZM14.1089 8.68293L11.0043 8.69709L11.0477 10.1542H14.1377L14.1089 8.68293ZM15.0475 13.0116L12.8383 15.1617L13.9212 16.1944L16.0006 14.1235L15.0475 13.0116ZM15.0242 3.36261L10.1064 3.38635L10.0692 3.44216C10.9075 5.65118 11.0223 7.83173 11.0223 7.83173L14.0152 7.81743C14.0461 6.06088 15.0242 3.36261 15.0242 3.36261ZM20.6473 17.1885L17.1963 20.6212C17.1963 20.6212 15.9333 18.0389 14.684 16.7787L16.7842 14.6898C16.7842 14.6898 18.4433 16.1478 20.6331 17.1233L20.6473 17.1885Z" fill="white"/>
<path fill-rule="evenodd" clip-rule="evenodd" d="M43.1346 0.376953H26.1132V24.0003H31.3506V17.1235H33.642V24.0003H43.1346V18.9763H38.3338V17.1235H43.1346V0.376953ZM31.3506 12.2323V5.2941H38.3338V12.2323H31.3506Z" fill="white"/>
<path d="M45.7535 24.0002V0.376953H50.7727V18.9763H57.6468V0.376953H62.4477V24.0002H45.7535Z" fill="white"/>
<path d="M81.6513 0.376953H65.0662V14.1235H76.7413V18.9763H65.0662V24.0002H81.6513V9.10193H69.9764V5.2941H81.6513V0.376953Z" fill="white"/>
<path d="M100.855 0.376953H84.1609V5.2941H90.2712V24.0002H94.963V5.2941H100.855V0.376953Z" fill="white"/>
</svg>
