<svg width="58" height="40" viewBox="0 0 58 40" fill="none" xmlns="http://www.w3.org/2000/svg">
<rect x="0.5" y="0.5" width="57" height="39" rx="5.5" fill="white"/>
<rect x="0.5" y="0.5" width="57" height="39" rx="5.5" stroke="#F9F7F6"/>
<path fill-rule="evenodd" clip-rule="evenodd" d="M24.357 30.7475L24.7249 28.3323L23.9054 28.3125H19.9922L22.7117 10.4898C22.7202 10.4359 22.7476 10.3858 22.7876 10.3501C22.8278 10.3145 22.879 10.2949 22.9326 10.2949H29.5309C31.7216 10.2949 33.2333 10.766 34.0225 11.6959C34.3925 12.1321 34.6282 12.5881 34.7423 13.0897C34.8619 13.6162 34.8638 14.2451 34.7472 15.0122L34.7387 15.0681V15.5597L35.1087 15.7764C35.4203 15.9472 35.6679 16.1428 35.8579 16.3666C36.1743 16.7397 36.3791 17.2138 36.4656 17.7757C36.555 18.3537 36.5255 19.0416 36.3791 19.8204C36.2102 20.7161 35.9373 21.4963 35.5686 22.1346C35.2297 22.7227 34.7978 23.2107 34.2849 23.5887C33.7953 23.9479 33.2136 24.2206 32.5559 24.3952C31.9185 24.5667 31.1918 24.6532 30.3947 24.6532H29.8813C29.5142 24.6532 29.1575 24.7899 28.8775 25.0349C28.5968 25.285 28.4111 25.6267 28.3542 26.0004L28.3154 26.2179L27.6653 30.475L27.636 30.6312C27.6281 30.6807 27.6147 30.7053 27.595 30.722C27.5775 30.7373 27.5522 30.7475 27.5276 30.7475H24.357Z" fill="#28356A"/>
<path fill-rule="evenodd" clip-rule="evenodd" d="M35.4595 15.125C35.44 15.2551 35.4173 15.3881 35.3921 15.5248C34.5219 20.1425 31.5449 21.7378 27.7428 21.7378H25.8068C25.3418 21.7378 24.9499 22.0866 24.8776 22.5607L23.6057 30.8995C23.5586 31.2109 23.7907 31.4913 24.0946 31.4913H27.5282C27.9347 31.4913 28.2801 31.1861 28.3441 30.7716L28.3778 30.5914L29.0243 26.351L29.0659 26.1184C29.1291 25.7026 29.4753 25.3971 29.8818 25.3971H30.3953C33.722 25.3971 36.3263 24.0012 37.0874 19.9615C37.4052 18.274 37.2407 16.8648 36.3994 15.8738C36.1448 15.5751 35.8289 15.327 35.4595 15.125Z" fill="#298FC2"/>
<path fill-rule="evenodd" clip-rule="evenodd" d="M34.5487 14.7505C34.4157 14.7104 34.2785 14.6742 34.1379 14.6414C33.9964 14.6094 33.8516 14.5811 33.7024 14.5562C33.1804 14.4691 32.6084 14.4277 31.9958 14.4277H26.8241C26.6966 14.4277 26.5756 14.4575 26.4675 14.5112C26.2288 14.6298 26.0517 14.8632 26.0088 15.1489L24.9085 22.3514L24.877 22.5614C24.9493 22.0873 25.3412 21.7384 25.8062 21.7384H27.7421C31.5442 21.7384 34.5213 20.1424 35.3914 15.5254C35.4174 15.3888 35.4393 15.2558 35.4588 15.1257C35.2387 15.0049 35.0003 14.9016 34.7436 14.8137C34.6801 14.7919 34.6147 14.7709 34.5487 14.7505Z" fill="#22284F"/>
<path fill-rule="evenodd" clip-rule="evenodd" d="M26.0091 15.1485C26.052 14.8628 26.2292 14.6294 26.4678 14.5117C26.5767 14.4577 26.6969 14.428 26.8244 14.428H31.9961C32.6087 14.428 33.1807 14.4695 33.7027 14.5567C33.8519 14.5813 33.9967 14.6098 34.1382 14.6418C34.2788 14.6744 34.416 14.7109 34.549 14.7508C34.615 14.7711 34.6804 14.7923 34.7445 14.8133C35.0012 14.9013 35.2398 15.0053 35.4599 15.1253C35.7188 13.4189 35.4577 12.257 34.5652 11.2049C33.5809 10.0465 31.8048 9.55078 29.5319 9.55078H22.9335C22.4692 9.55078 22.0732 9.89965 22.0014 10.3746L19.2531 28.3806C19.1989 28.7368 19.4647 29.0581 19.8123 29.0581H23.8859L26.0091 15.1485Z" fill="#28356A"/>
</svg>
