<svg width="28" height="20" viewBox="0 0 28 20" fill="none" xmlns="http://www.w3.org/2000/svg">
<g clip-path="url(#clip0_10_4582)">
<path d="M20.0853 4.27727C19.9504 4.20752 19.819 4.13106 19.6917 4.04818C19.3215 3.80339 18.9821 3.51495 18.6808 3.18909C17.9262 2.32545 17.6444 1.45091 17.5408 0.838182H17.5453C17.458 0.329091 17.4944 0 17.4999 0H14.0644V13.2818C14.0644 13.46 14.0644 13.6364 14.0571 13.8109L14.0544 13.8755C14.0544 13.8845 14.0544 13.8955 14.0517 13.9055V13.9127C14.0154 14.3892 13.8627 14.8495 13.6068 15.2531C13.351 15.6567 12.9999 15.9912 12.5844 16.2273C12.1514 16.4737 11.6617 16.6031 11.1635 16.6027C9.56349 16.6027 8.26621 15.2973 8.26621 13.6864C8.26478 13.3045 8.33859 12.9262 8.48344 12.5729C8.62829 12.2196 8.84133 11.8983 9.11039 11.6274C9.37945 11.3565 9.69926 11.1412 10.0515 10.994C10.4038 10.8467 10.7817 10.7703 11.1635 10.7691C11.4662 10.7691 11.7671 10.8173 12.0553 10.9109L12.0599 7.41364C11.1855 7.30071 10.2972 7.3702 9.45102 7.61774C8.60485 7.86527 7.81915 8.28546 7.14349 8.85182C6.55141 9.36619 6.05364 9.97994 5.67258 10.6655C5.52712 10.9155 4.98076 11.92 4.9144 13.55C4.87258 14.4755 5.15076 15.4345 5.28258 15.83V15.8391C5.36621 16.0718 5.68894 16.8682 6.2153 17.5391C6.63972 18.0775 7.14117 18.5505 7.70349 18.9427V18.9345L7.71167 18.9436C9.3744 20.0727 11.218 19.9982 11.218 19.9982C11.5362 19.9864 12.6062 19.9982 13.8199 19.4236C15.1671 18.7855 15.9335 17.8355 15.9335 17.8355C16.4234 17.2676 16.8129 16.6205 17.0853 15.9218C17.3962 15.1045 17.4999 14.1245 17.4999 13.7327V6.68727C17.5417 6.71182 18.0962 7.07818 18.0962 7.07818C18.0962 7.07818 18.8962 7.59091 20.1435 7.92545C21.038 8.16182 22.2435 8.21273 22.2435 8.21273V4.80273C21.8217 4.84818 20.9635 4.71545 20.0853 4.27727Z" fill="white"/>
</g>
<defs>
<clipPath id="clip0_10_4582">
<rect width="28" height="20" fill="white"/>
</clipPath>
</defs>
</svg>
