<svg width="72" height="73" viewBox="0 0 72 73" fill="none" xmlns="http://www.w3.org/2000/svg">
<path d="M36 0.128906C55.8822 0.128906 72 16.2467 72 36.1289C72 56.0112 55.8822 72.1289 36 72.1289C16.1178 72.1289 0 56.0112 0 36.1289C0 16.2467 16.1178 0.128906 36 0.128906ZM36 4.28275C18.4119 4.28275 4.15385 18.5408 4.15385 36.1289C4.15385 53.717 18.4119 67.9751 36 67.9751C53.5881 67.9751 67.8462 53.717 67.8462 36.1289C67.8462 18.5408 53.5881 4.28275 36 4.28275ZM36 8.4366C51.294 8.4366 63.6923 20.8349 63.6923 36.1289C63.6923 51.423 51.294 63.8212 36 63.8212C20.706 63.8212 8.30769 51.423 8.30769 36.1289C8.30769 20.8349 20.706 8.4366 36 8.4366ZM49.4846 43.5986L48.208 45.2369L47.8674 45.6584C47.1719 46.4892 46.3907 47.245 45.5365 47.9132C38.9181 53.0909 29.4055 52.0304 24.0814 45.597L23.8097 45.2595L22.51 43.5979L19.2383 46.1574L20.5181 47.7932L20.8365 48.1911C27.5806 56.4008 39.6821 57.7671 48.0959 51.1849C49.1793 50.3374 50.1702 49.3787 51.0524 48.3249L51.4843 47.7901L52.7611 46.152L49.4846 43.5986ZM24.9231 25.052C22.6289 25.052 20.7692 26.9117 20.7692 29.2058C20.7692 31.5 22.6289 33.3597 24.9231 33.3597C27.2172 33.3597 29.0769 31.5 29.0769 29.2058C29.0769 26.9117 27.2172 25.052 24.9231 25.052ZM47.0769 25.052C44.7827 25.052 42.9231 26.9117 42.9231 29.2058C42.9231 31.5 44.7827 33.3597 47.0769 33.3597C49.3711 33.3597 51.2308 31.5 51.2308 29.2058C51.2308 26.9117 49.3711 25.052 47.0769 25.052Z" fill="white"/>
</svg>
