<svg width="145" height="30" viewBox="0 0 145 30" fill="none" xmlns="http://www.w3.org/2000/svg">
<path d="M143.895 0.544922H0.90625V29.9995H143.895V0.544922Z" fill="black"/>
<path fill-rule="evenodd" clip-rule="evenodd" d="M112.957 0.544922H138.916C142.625 0.544922 145.129 4.33961 143.672 7.75499L140.458 15.2935C139.659 17.1673 137.839 18.3941 135.811 18.4369L135.804 18.4371H113.621L111.629 23.1105L133.207 23.1106C135.062 23.1106 136.315 25.0077 135.586 26.7157L134.283 29.7696H100.493L105.515 17.9917C107.142 14.1778 110.885 11.703 115.027 11.703H133.691L135.647 7.11476H110.153L112.957 0.544922ZM106.696 18.4955L102.437 28.4854H133.435L134.404 26.2117C134.772 25.3497 134.14 24.3948 133.207 24.3948H109.685L112.773 17.1529H135.79C137.311 17.1182 138.677 16.1969 139.276 14.7901L142.491 7.25123C143.587 4.68124 141.702 1.82917 138.916 1.82917H113.805L112.097 5.83046H137.591L134.54 12.9872H115.027C111.4 12.9872 108.122 15.1542 106.696 18.4955Z" fill="white"/>
<path d="M73.0216 25.6448H72.0324L69.3414 25.6408L68.0053 28.692H64.9151L69.6499 17.7316H72.732L70.5008 22.9057L77.8219 17.9036C77.9863 17.7916 78.1803 17.7316 78.3791 17.7316H83.0141L74.811 23.3805L78.5124 28.6923H75.126L73.0216 25.6448Z" fill="white"/>
<path d="M36.2141 28.6923H34.356L38.019 20.1948C37.8758 20.1948 33.969 20.1955 33.969 20.1955L35.04 17.7316H46.2875L45.543 19.4767C45.3654 19.8939 44.8598 20.1955 44.3648 20.1955H41.1649L38.019 27.5111C37.7113 28.2273 37.0012 28.6923 36.2141 28.6923Z" fill="white"/>
<path d="M63.9373 17.7316H67.107L62.7207 27.949C62.5432 28.3665 62.013 28.6923 61.5172 28.6923H59.2099L63.9373 17.7316Z" fill="white"/>
<path d="M57.8378 28.692H54.5364L53.175 26.1946H47.3323L46.7645 27.5128C46.4561 28.2282 45.7467 28.692 44.9613 28.692H43.0778L47.8012 17.7316H58.3074C59.7139 17.7316 60.6622 19.1548 60.1107 20.4356L58.0742 25.161C57.8042 25.7881 57.1824 26.1949 56.4943 26.1949L57.8378 28.692ZM57.1219 20.1955L48.4614 20.2032L49.6592 20.7777L48.3829 23.7571H54.9472C55.3407 23.7571 55.695 23.5244 55.8488 23.1659L57.1219 20.1955Z" fill="white"/>
<path d="M92.2211 22.2839H85.1168L85.7664 20.7751L84.5424 20.1948H94.0415C94.4334 20.1948 94.7877 19.9627 94.9415 19.605L95.7466 17.7316H85.1945C84.4107 17.7316 83.703 18.1958 83.3945 18.9109L79.7675 27.3403C79.4926 27.9808 79.9655 28.6923 80.6675 28.6923H90.3834C90.7762 28.6923 91.1304 28.4596 91.2842 28.101L92.1 26.1948H83.4232L84.1931 24.4189H90.6526C91.0445 24.4189 91.398 24.1874 91.5526 23.831L92.2211 22.2839Z" fill="white"/>
<path d="M28.5485 10.0178C27.9333 11.4502 26.5162 12.3798 24.9469 12.3798H16.203C14.799 12.3798 13.8515 10.9566 14.403 9.67534L16.9434 3.7765C17.5587 2.3468 18.975 1.41903 20.5434 1.41903H29.2873C30.6913 1.41903 31.6388 2.84265 31.0874 4.12357L28.5485 10.0178ZM25.6873 9.29292L28.0159 3.88345H18.615L19.8177 4.47557L17.4892 9.88234H24.7873C25.1801 9.88234 25.5335 9.65063 25.6873 9.29292Z" fill="white"/>
<path d="M37.2024 1.42132L33.5918 9.88046L40.1299 9.88201C40.5243 9.88201 40.8802 9.64793 41.0332 9.28793L43.9025 2.60118C44.2102 1.88336 44.9212 1.4179 45.7074 1.41903L47.5712 1.42132L43.8894 10.0141C43.275 11.4486 41.8554 12.3798 40.2829 12.3798H32.2647C30.8583 12.3798 29.9108 10.9553 30.4639 9.6742L33.5173 2.59965C33.8258 1.88489 34.5343 1.42132 35.319 1.42132H37.2024Z" fill="white"/>
<path d="M65.9116 12.3798H64.0527L67.7165 3.88231C67.5733 3.88231 63.6665 3.88305 63.6665 3.88305L64.7375 1.41903H75.9843L75.2405 3.16421C75.063 3.58128 74.5573 3.88305 74.0623 3.88305H70.8624L67.7165 11.1986C67.4089 11.9149 66.6979 12.3798 65.9116 12.3798Z" fill="white"/>
<path d="M101.439 12.3795H98.1373L96.7751 9.88209H90.9324L90.3646 11.2003C90.0562 11.9156 89.3468 12.3795 88.5613 12.3795H86.6779L91.4013 1.41903H101.908C103.314 1.41903 104.262 2.84222 103.711 4.12308L101.674 8.84857C101.404 9.47562 100.783 9.88242 100.094 9.88242L101.439 12.3795ZM100.722 3.88297L92.0615 3.89059L93.2602 4.46519L91.983 7.44473H98.5472C98.9408 7.44473 99.2959 7.21188 99.4497 6.85343L100.722 3.88297Z" fill="white"/>
<path d="M85.9399 5.97151H78.8192L79.4697 4.46264L78.2432 3.88231H87.7644C88.1572 3.88231 88.5123 3.65018 88.6669 3.29245L89.4744 1.41903H78.897C78.1115 1.41903 77.4013 1.8833 77.0929 2.59834L73.4577 11.0278C73.1812 11.6683 73.6557 12.3798 74.3593 12.3798H84.0982C84.4917 12.3798 84.8476 12.147 85.0006 11.7885L85.8188 9.88234H77.1207L77.8931 8.1064H84.3682C84.7601 8.1064 85.1152 7.87501 85.2698 7.51845L85.9399 5.97151Z" fill="white"/>
<path d="M3.60543 3.76547C4.22561 2.34148 5.64107 1.41865 7.20625 1.41903L16.5114 1.42017L15.7039 3.2936C15.5501 3.65131 15.195 3.88345 14.8031 3.88345H5.22216L6.48625 4.47557L4.15852 9.88234H12.8648L12.0425 11.79C11.8887 12.1477 11.5344 12.3798 11.1417 12.3798H2.86907C1.46343 12.3798 0.515156 10.9586 1.06497 9.67763L3.60543 3.76547Z" fill="white"/>
<path d="M48.6504 11.2C48.342 11.9153 47.6326 12.3798 46.8464 12.3798H44.9621L49.6879 1.42093L52.0492 1.41903C52.4133 1.41903 52.7471 1.61764 52.9173 1.9361L56.6883 8.99895L59.4594 2.59966C59.7679 1.88664 60.4756 1.42398 61.2594 1.42322L63.174 1.42093L58.6969 11.7905C58.5431 12.1478 58.188 12.3798 57.7952 12.3798H55.7907C55.4274 12.3798 55.0936 12.1813 54.9242 11.8636L51.2915 5.07658L48.6504 11.2Z" fill="white"/>
<path d="M27.4628 24.4421L26.7076 26.1948H17.7878C17.3959 26.1948 17.0424 26.4257 16.8878 26.7825L16.059 28.6923H26.1308C27.7009 28.6923 29.1204 27.7643 29.7365 26.3338L30.4753 24.6205C31.0276 23.3396 30.0785 21.9164 28.6721 21.9164H22.0751L22.5602 20.7876L21.3273 20.1955H31.7337C32.1273 20.1955 32.4823 19.9631 32.6362 19.6046L33.4396 17.7316H23.3678C21.7944 17.7316 20.3732 18.6639 19.7588 20.0993L19.0552 21.7421C18.5062 23.0226 19.4553 24.4425 20.8601 24.4425L27.4628 24.4421L21.5801 24.4425L27.4628 24.4421Z" fill="white"/>
</svg>
