<svg width="72" height="73" viewBox="0 0 72 73" fill="none" xmlns="http://www.w3.org/2000/svg">
<path fill-rule="evenodd" clip-rule="evenodd" d="M35.9999 0.128906L45.8982 7.15807L58.2492 7.0043L61.9132 18.2233L72 25.0043L68.0301 36.1289L72 47.2535L61.9132 54.0332L58.2492 65.2535L45.8982 65.0984L35.9999 72.1289L26.1031 65.0984L13.7508 65.2535L10.088 54.0332L0 47.2535L3.97118 36.1289L0 25.0043L10.088 18.2233L13.7508 7.0043L26.1031 7.15807L35.9999 0.128906ZM35.9999 5.03237L27.4505 11.104L16.7813 10.9713L13.6171 20.6627L4.90347 26.5196L8.33312 36.1289L4.90347 45.7382L13.6171 51.5951L16.7813 61.2866L27.4505 61.1539L35.9999 67.2254L44.5495 61.1539L55.2187 61.2866L58.3829 51.5951L67.0965 45.7382L63.6668 36.1289L67.0965 26.5196L58.3829 20.6627L55.2187 10.9713L44.5495 11.104L35.9999 5.03237ZM35.9999 9.93584L43.2013 15.05L52.1882 14.9383L54.8535 23.1015L62.1931 28.0348L59.3041 36.1289L62.1931 44.2229L54.8535 49.1564L52.1882 57.3195L43.2013 57.2078L35.9999 62.322L28.7986 57.2078L19.8117 57.3195L17.1464 49.1564L9.80692 44.2229L12.6958 36.1289L9.80692 28.0348L17.1464 23.1015L19.8117 14.9383L28.7986 15.05L35.9999 9.93584ZM38.1981 19.1034H35.153V22.9546C33.9858 23.062 32.9265 23.3067 31.9748 23.6889C31.0233 24.071 30.2113 24.5726 29.5388 25.1936C28.8664 25.8145 28.3463 26.5459 27.9783 27.3877C27.6104 28.2296 27.4264 29.1581 27.4264 30.1731C27.4264 31.3315 27.6294 32.3316 28.0353 33.1734C28.4414 34.0152 29.0155 34.7527 29.7577 35.3855C30.5 36.0185 31.3975 36.5738 32.4507 37.0514C33.5037 37.529 34.6709 37.9828 35.9524 38.4127C36.7516 38.6754 37.4337 38.9411 37.9983 39.2099C38.5629 39.4785 39.0196 39.7741 39.3685 40.0965C39.7174 40.4189 39.9712 40.7741 40.1298 41.1623C40.2883 41.5503 40.3676 41.9951 40.3676 42.4967C40.3676 43.44 40.0187 44.2102 39.3209 44.8073C38.6231 45.4044 37.5955 45.703 36.2379 45.703C35.6669 45.703 35.1087 45.6313 34.5631 45.4879C34.0175 45.3447 33.5322 45.1029 33.1073 44.7625C32.6822 44.4223 32.3364 43.9625 32.07 43.3833C31.8416 42.8868 31.7111 42.2874 31.6785 41.5848L31.6703 41.2249H26.3606C26.3606 42.6579 26.5954 43.8849 27.0648 44.9058C27.5342 45.9268 28.1591 46.7717 28.9394 47.4404C29.7196 48.1091 30.6173 48.6196 31.6323 48.9719C32.4781 49.2655 33.3459 49.4699 34.2359 49.5852L34.7724 49.6436V53.1544H37.7985V49.6436C38.991 49.5362 40.0695 49.3003 41.0337 48.9361C41.9981 48.5719 42.8226 48.0852 43.5079 47.4763C44.193 46.8673 44.7195 46.1418 45.0875 45.2999C45.4553 44.458 45.6393 43.5117 45.6393 42.4608C45.6393 41.3145 45.4395 40.3203 45.0398 39.4785C44.6402 38.6366 44.0693 37.8963 43.3271 37.2574C42.5848 36.6184 41.6935 36.0573 40.6531 35.5736C39.6127 35.0899 38.4519 34.6214 37.1704 34.1676C36.3204 33.8809 35.6098 33.5973 35.0389 33.3167C34.4679 33.036 34.008 32.7406 33.6591 32.43C33.3103 32.1195 33.0628 31.7823 32.917 31.4181C32.771 31.0539 32.698 30.6388 32.698 30.1731C32.698 29.7074 32.771 29.2776 32.917 28.8835C33.0628 28.4894 33.288 28.146 33.5926 27.8535C33.897 27.5609 34.2871 27.334 34.7629 27.1728C35.2387 27.0116 35.8001 26.9311 36.4472 26.9311C37.6398 26.9311 38.5851 27.3042 39.2829 28.0506C39.9226 28.7347 40.269 29.7124 40.3223 30.9834L40.3296 31.3374H45.6203C45.6203 30.1433 45.4458 29.0655 45.097 28.1043C44.748 27.143 44.2533 26.307 43.6125 25.5965C42.9718 24.886 42.1947 24.3099 41.2812 23.8681C40.4982 23.4893 39.6313 23.2203 38.6805 23.0609L38.1981 22.9903V19.1034Z" fill="white"/>
</svg>
