<svg width="72" height="73" viewBox="0 0 72 73" fill="none" xmlns="http://www.w3.org/2000/svg">
<path d="M36 0.128906C55.8822 0.128906 72 16.2467 72 36.1289C72 56.0112 55.8822 72.1289 36 72.1289C16.1178 72.1289 0 56.0112 0 36.1289C0 16.2467 16.1178 0.128906 36 0.128906ZM36 4.28275C18.4119 4.28275 4.15385 18.5408 4.15385 36.1289C4.15385 53.717 18.4119 67.9751 36 67.9751C53.5881 67.9751 67.8462 53.717 67.8462 36.1289C67.8462 18.5408 53.5881 4.28275 36 4.28275ZM36 8.4366C51.294 8.4366 63.6923 20.8349 63.6923 36.1289C63.6923 51.423 51.294 63.8212 36 63.8212C20.706 63.8212 8.30769 51.423 8.30769 36.1289C8.30769 20.8349 20.706 8.4366 36 8.4366ZM38.0769 15.4275H33.9231V37.1838L44.6346 48.8786L47.6978 46.0729L38.0769 35.5681V15.4275Z" fill="white"/>
</svg>
