<svg width="72" height="73" viewBox="0 0 72 73" fill="none" xmlns="http://www.w3.org/2000/svg">
<path d="M35.9976 0.128906C38.7776 0.128906 42.1658 0.468781 45.9265 1.03873C47.2525 1.2397 48.5455 1.45798 49.7642 1.68072L50.4168 1.80173L51.4688 2.00557L60.4374 3.86871L60.4362 11.8609C60.4449 12.1947 60.6876 12.984 61.2257 13.5622C61.5936 13.9577 62.195 14.3004 63.057 14.5252L63.4212 14.6136L71.5863 16.4253L71.9761 24.042L71.9968 24.7148C72.0196 26.1827 71.9223 28.0652 71.6248 30.2906C71.1396 33.9206 70.2073 37.7086 68.7193 41.5369C64.2849 52.9434 55.7279 62.853 41.8585 69.4405L41.0621 69.8119L35.9981 72.1289L30.9312 69.8105C16.6185 63.2555 7.80378 53.1843 3.27674 41.5362C0.956487 35.5664 0.0504598 30.0097 0 25.3734L0.00129032 25.0344L0.328154 16.4426L8.57554 14.6128C9.71134 14.3608 10.4105 13.9848 10.8132 13.5519C11.1026 13.2411 11.3124 12.8558 11.4437 12.4317L11.5028 12.2185L11.5589 11.9475V3.86787L20.3079 2.04938L20.877 1.93576L22.7877 1.58015C27.6715 0.710261 32.3221 0.128906 35.9976 0.128906ZM35.9976 4.22642C33.0642 4.22642 29.3968 4.67974 26.4568 5.13439L25.2456 5.32801L24.1489 5.51389L23.1108 5.69898L21.8656 5.93358L16.0589 7.13546V11.9852L16.0373 12.298L16.0065 12.5362L15.9558 12.8279L15.8804 13.1657C15.6714 14.002 15.2199 15.1546 14.2466 16.2007C13.2858 17.2333 11.8053 18.1137 9.64054 18.5938L4.70736 19.6884L4.49857 25.1763L4.50256 25.5328L4.51302 25.9544L4.56088 26.9709L4.60209 27.5611L4.65733 28.2029L4.72854 28.8937L4.81759 29.6314C4.83403 29.758 4.8513 29.8867 4.86942 30.017L4.9888 30.8205L5.13081 31.6651L5.29731 32.5483C5.3272 32.6987 5.35819 32.8504 5.39034 33.0037L5.59716 33.9405C6.03941 35.8477 6.65719 37.9521 7.5189 40.1693C7.57035 40.3016 7.62285 40.4348 7.67643 40.5688L8.0111 41.3823L8.37275 42.2136L8.7626 43.0613C8.82994 43.2039 8.89849 43.347 8.96824 43.4907L9.40204 44.3601C13.1438 51.658 20.0826 60.2554 32.9532 66.1499L35.9981 67.5432L39.0416 66.1506L39.8069 65.7937C53.9451 59.0782 60.7239 49.0789 63.976 41.4038L64.317 40.576L64.4773 40.1695C64.8454 39.2223 65.1693 38.2955 65.4538 37.3957L65.7256 36.5049C65.7688 36.358 65.811 36.2119 65.8522 36.0667L66.0871 35.2055C66.1242 35.0638 66.1605 34.9229 66.1957 34.7829L66.3964 33.9547L66.5757 33.1499L66.7347 32.3703C66.7596 32.2425 66.7836 32.1159 66.807 31.9904L66.9379 31.251L67.0516 30.5404L67.1491 29.8596L67.2318 29.2106L67.3303 28.2992L67.3809 27.7351L67.4368 26.9578L67.4803 26.0576L67.4983 25.1672L67.4881 24.3989L67.248 19.6801L62.3559 18.5948L61.9079 18.487C60.0102 17.9939 58.6817 17.1669 57.7922 16.211C56.8961 15.2479 56.432 14.194 56.192 13.3743L56.0964 13.0137C56.0829 12.9567 56.0705 12.9015 56.0592 12.8481L56.0028 12.5507L55.9554 12.2024L55.9388 11.9927L55.9374 7.13625L50.709 6.04949L49.802 5.87067L47.705 5.48942L45.9562 5.19972L44.3887 4.96247L43.1455 4.7908L41.8663 4.63128L40.5706 4.49001L39.7075 4.40896L38.8516 4.34054C38.7098 4.33028 38.5687 4.32062 38.4281 4.31161L37.5941 4.26548C37.0448 4.24024 36.5101 4.22642 35.9976 4.22642ZM35.9976 8.32393C41.2469 8.32393 49.0071 9.89971 49.6727 10.037L51.4374 10.4038L51.4379 12.0091C51.4499 12.5797 51.7871 20.2054 60.8159 22.4638L61.2906 22.5758L62.9097 22.935L62.9858 24.4207C62.9879 24.462 62.9966 24.6513 62.9981 24.9717L62.9975 25.2361C62.9814 27.2076 62.6831 32.5042 60.2352 38.8022C57.468 45.9203 51.3261 55.6889 37.7554 62.1467L37.0211 62.4894L35.9981 62.9574L34.9752 62.4894C20.8904 56.0387 14.577 46.0478 11.7611 38.8022C9.31324 32.504 9.01459 27.2076 8.99899 25.2357L8.99944 24.8573C9.00154 24.6561 9.00649 24.52 9.00934 24.4552L9.01099 24.4199L9.08659 22.9342L10.7057 22.5749C20.1276 20.4851 20.5412 12.8521 20.5581 12.0434L20.5589 10.403L22.2888 10.0434C22.6258 9.97423 30.627 8.32393 35.9976 8.32393ZM47.5724 23.4783L32.7522 40.1111L27.1143 34.5016L23.7949 37.2681L32.959 46.3848L51.0671 26.0597L47.5724 23.4783Z" fill="white"/>
</svg>
